<?xml version="1.0" encoding="UTF-8" standalone="no"?>
<!-- Created with Inkscape (http://www.inkscape.org/) -->

<svg
   width="1920"
   height="1080"
   viewBox="0 0 508 285.75"
   version="1.1"
   id="svg5"
   inkscape:version="1.3 (0e150ed6c4, 2023-07-21)"
   sodipodi:docname="aircam-tv.svg"
   inkscape:export-filename="../../public/aircam-tv.png"
   inkscape:export-xdpi="96"
   inkscape:export-ydpi="96"
   xml:space="preserve"
   xmlns:inkscape="http://www.inkscape.org/namespaces/inkscape"
   xmlns:sodipodi="http://sodipodi.sourceforge.net/DTD/sodipodi-0.dtd"
   xmlns:xlink="http://www.w3.org/1999/xlink"
   xmlns="http://www.w3.org/2000/svg"
   xmlns:svg="http://www.w3.org/2000/svg"><sodipodi:namedview
     id="namedview7"
     pagecolor="#505050"
     bordercolor="#eeeeee"
     borderopacity="1"
     inkscape:showpageshadow="0"
     inkscape:pageopacity="0"
     inkscape:pagecheckerboard="0"
     inkscape:deskcolor="#505050"
     inkscape:document-units="px"
     showgrid="false"
     inkscape:zoom="0.49260385"
     inkscape:cx="932.79823"
     inkscape:cy="368.45023"
     inkscape:window-width="1920"
     inkscape:window-height="1011"
     inkscape:window-x="0"
     inkscape:window-y="0"
     inkscape:window-maximized="1"
     inkscape:current-layer="layer2"><inkscape:grid
       type="xygrid"
       id="grid225"
       dotted="false"
       originx="0"
       originy="0"
       spacingy="1"
       spacingx="1"
       units="px"
       visible="false" /></sodipodi:namedview><defs
     id="defs2"><rect
       x="600.0169"
       y="752.1743"
       width="709.11089"
       height="172.25366"
       id="rect1" /><rect
       x="271.23881"
       y="247.09257"
       width="418.71754"
       height="103.76258"
       id="rect1667" /><linearGradient
       inkscape:collect="always"
       id="linearGradient404"><stop
         style="stop-color:#171717;stop-opacity:1;"
         offset="0.31485203"
         id="stop400" /><stop
         style="stop-color:#003c58;stop-opacity:1;"
         offset="0.55270672"
         id="stop1910" /><stop
         style="stop-color:#000c18;stop-opacity:1;"
         offset="0.76262963"
         id="stop1908" /></linearGradient><linearGradient
       inkscape:collect="always"
       xlink:href="#linearGradient404"
       id="linearGradient406"
       x1="-9.6588202"
       y1="-9.2556581"
       x2="66.045822"
       y2="64.585991"
       gradientUnits="userSpaceOnUse"
       spreadMethod="pad" /><rect
       x="271.2388"
       y="247.09258"
       width="418.71753"
       height="103.76258"
       id="rect1667-9" /></defs><g
     inkscape:groupmode="layer"
     id="layer2"
     inkscape:label="Background"
     style="display:inline"
     transform="scale(7.9375,4.4648437)"><rect
       style="mix-blend-mode:normal;fill:url(#linearGradient406);fill-opacity:1;stroke-width:0.264583"
       id="rect386"
       width="64"
       height="64"
       x="0"
       y="0"
       inkscape:label="rect386" /><text
       xml:space="preserve"
       transform="scale(0.03333333,0.05925926)"
       id="text1"
       style="font-size:64px;font-family:Sans;-inkscape-font-specification:'Sans, Normal';white-space:pre;shape-inside:url(#rect1);display:inline;fill:#000000" /><g
       id="g9"
       transform="translate(1.656417)"><text
         xml:space="preserve"
         style="font-style:normal;font-variant:normal;font-weight:normal;font-stretch:normal;font-size:9.93684px;font-family:Sans;-inkscape-font-specification:'Sans, @wght=700';font-variant-ligatures:normal;font-variant-caps:normal;font-variant-numeric:normal;font-variant-east-asian:normal;font-variation-settings:'wght' 700;fill:#ffffff;stroke-width:0.133081"
         x="59.831947"
         y="27.448082"
         id="text2"
         transform="scale(0.74999996,1.3333334)"><tspan
           sodipodi:role="line"
           id="tspan2"
           style="font-style:normal;font-variant:normal;font-weight:bold;font-stretch:normal;font-size:9.93684px;font-family:Cantarell;-inkscape-font-specification:'Cantarell, Bold';font-variant-ligatures:normal;font-variant-caps:normal;font-variant-numeric:normal;font-variant-east-asian:normal;fill:#ffffff;stroke-width:0.133081"
           x="59.831947"
           y="27.448082">TV</tspan></text><g
         id="g68"
         transform="matrix(0.0767136,0,0,0.13637975,3.3087785,21.505579)">&#10;	<g
   id="g66"
   style="fill:#ffffff">&#10;		<g
   id="g18"
   style="fill:#ffffff">&#10;			<path
   class="st0"
   d="m 97,85.8 c -4.9,0 -8.8,-4 -8.8,-8.8 0,-4.8 4,-8.8 8.8,-8.8 4.9,0 8.8,4 8.8,8.8 0,4.8 -4,8.8 -8.8,8.8"
   id="path4"
   inkscape:connector-curvature="0"
   style="fill:#ffffff" />&#10;			<path
   class="st0"
   d="m 97,68.1 c -4.9,0 -8.8,4 -8.8,8.8 0,4.9 4,8.8 8.8,8.8 4.9,0 8.8,-4 8.8,-8.8 0,-4.8 -4,-8.8 -8.8,-8.8"
   id="path6"
   inkscape:connector-curvature="0"
   style="fill:#ffffff" />&#10;			<path
   class="st0"
   d="m 97,33.7 c -24,0 -43.4,19.4 -43.4,43.3 0,23.9 19.5,43.3 43.4,43.3 23.9,0 43.4,-19.4 43.4,-43.3 C 140.3,53.1 120.9,33.7 97,33.7 m 0,74.2 c -17.1,0 -31,-13.9 -31,-31 0,-17.1 13.9,-31 31,-31 17.1,0 31,13.9 31,31 0,17.1 -13.9,31 -31,31"
   id="path8"
   inkscape:connector-curvature="0"
   style="fill:#ffffff" />&#10;			<polygon
   class="st0"
   points="150.1,43.9 150.1,23.9 130.6,23.9 130.6,35.3 138.8,35.3 138.8,43.9 "
   id="polygon10"
   style="fill:#ffffff" />&#10;			<polygon
   class="st0"
   points="43.8,43.9 55.2,43.9 55.2,35.3 63,35.3 63,23.9 43.8,23.9 "
   id="polygon12"
   style="fill:#ffffff" />&#10;			<polygon
   class="st0"
   points="63,118.7 55.2,118.7 55.2,110.3 43.8,110.3 43.8,130 63,130 "
   id="polygon14"
   style="fill:#ffffff" />&#10;			<polygon
   class="st0"
   points="150.1,110.3 138.8,110.3 138.8,118.7 130.6,118.7 130.6,130 150.1,130 "
   id="polygon16"
   style="fill:#ffffff" />&#10;		</g>&#10;		<g
   id="g64"
   transform="translate(-10.1,10.2)"
   style="fill:#ffffff">&#10;			<g
   id="g32"
   style="fill:#ffffff">&#10;				<path
   class="st0"
   d="M 233.6,47.4 V 91 h -13.4 l -0.6,-4.9 c -2.8,3.6 -7.1,5.8 -13.2,5.8 -11.9,0 -21.4,-10 -21.4,-22.9 0,-12.7 9.5,-22.7 21.4,-22.7 5.4,0 9.5,1.8 12.3,4.7 V 47.4 Z M 219.5,69 c 0,-5.5 -4.3,-9.7 -9.8,-9.7 -5.5,0 -9.7,4.2 -9.7,9.7 0,5.5 4.2,9.8 9.7,9.8 5.5,0 9.8,-4.3 9.8,-9.8"
   id="path20"
   inkscape:connector-curvature="0"
   style="fill:#ffffff" />&#10;				<path
   class="st0"
   d="m 251.9,32 c 0,-4.5 3.6,-8 8.1,-8 4.4,0 8.1,3.5 8.1,8 0,4.5 -3.7,8.1 -8.1,8.1 -4.4,0 -8.1,-3.6 -8.1,-8.1 m 0.7,15.4 h 14.8 V 91 h -14.8 z"
   id="path22"
   inkscape:connector-curvature="0"
   style="fill:#ffffff" />&#10;				<path
   class="st0"
   d="m 320.8,48.9 -5.1,12.7 c -1.6,-0.9 -3.3,-1.4 -4.8,-1.4 -5.1,0 -9.7,4.3 -9.7,11.7 v 19 H 286.3 V 47.4 h 14.9 v 7.1 c 2.5,-4.7 6.5,-8 12.3,-8 3.1,-0.1 5.3,0.9 7.3,2.4"
   id="path24"
   inkscape:connector-curvature="0"
   style="fill:#ffffff" />&#10;				<path
   class="st0"
   d="m 329.3,69.2 c 0,-12.7 10,-22.6 23.5,-22.6 9.7,0 17.7,5.7 21,14 l -12.2,5 c -1.5,-3.5 -4.7,-5.9 -8.8,-5.9 -5.5,0 -9.6,4.2 -9.6,9.6 0,5.4 4.1,9.5 9.6,9.5 4.1,0 7.3,-2.3 8.8,-5.8 l 12.2,5 c -3.4,8.4 -11.4,14 -21,14 -13.5,-0.2 -23.5,-10.1 -23.5,-22.8"
   id="path26"
   inkscape:connector-curvature="0"
   style="fill:#ffffff" />&#10;				<path
   class="st0"
   d="M 434.7,47.4 V 91 h -13.4 l -0.6,-4.9 c -2.8,3.6 -7.1,5.8 -13.2,5.8 -11.9,0 -21.4,-10 -21.4,-22.9 0,-12.7 9.5,-22.7 21.4,-22.7 5.4,0 9.5,1.8 12.3,4.7 V 47.4 Z M 420.6,69 c 0,-5.5 -4.3,-9.7 -9.8,-9.7 -5.5,0 -9.7,4.2 -9.7,9.7 0,5.5 4.2,9.8 9.7,9.8 5.5,0 9.8,-4.3 9.8,-9.8"
   id="path28"
   inkscape:connector-curvature="0"
   style="fill:#ffffff" />&#10;				<path
   class="st0"
   d="M 522.5,63.4 V 91 H 507.6 V 65.2 c 0,-3.5 -2.1,-6 -5.7,-6 -4.2,0 -6.1,3.2 -6.1,7 V 91 H 481 V 65.2 c 0,-3.5 -2.1,-6 -5.8,-6 -4.2,0 -6,3.2 -6,7 V 91 H 454.3 V 47.4 h 14.9 v 4.7 c 2.7,-3.4 6.4,-5.6 11.2,-5.6 5.4,0 10,2.8 12.8,7.1 2.9,-4.4 7.4,-7.1 13.3,-7.1 9.4,0 16,7.3 16,16.9"
   id="path30"
   inkscape:connector-curvature="0"
   style="fill:#ffffff" />&#10;			</g>&#10;			&#10;		</g>&#10;	</g>&#10;</g></g></g><style
     type="text/css"
     id="style2">&#10;	.st0{fill:#1070c0;}&#10;</style><style
     type="text/css"
     id="style2-3">&#10;	.st0{fill:#1070c0;}&#10;</style></svg>
